<mxfile host="app.diagrams.net" agent="Mozilla/5.0 (Windows NT 10.0; Win64; x64) AppleWebKit/537.36 (KHTML, like Gecko) Chrome/131.0.0.0 Safari/537.36" version="25.0.3">
  <diagram name="Page-1" id="-z1tCIqGZ2DV5ut69dqt">
    <mxGraphModel dx="2049" dy="1066" grid="1" gridSize="10" guides="1" tooltips="1" connect="1" arrows="1" fold="1" page="1" pageScale="1" pageWidth="850" pageHeight="1100" math="0" shadow="0">
      <root>
        <mxCell id="0" />
        <mxCell id="1" parent="0" />
        <mxCell id="Z5qHU2cOtqx7cBTbtLDX-7" style="edgeStyle=orthogonalEdgeStyle;rounded=0;orthogonalLoop=1;jettySize=auto;html=1;entryX=0.5;entryY=0;entryDx=0;entryDy=0;" edge="1" parent="1" source="Z5qHU2cOtqx7cBTbtLDX-1" target="Z5qHU2cOtqx7cBTbtLDX-5">
          <mxGeometry relative="1" as="geometry" />
        </mxCell>
        <mxCell id="Z5qHU2cOtqx7cBTbtLDX-1" value="&lt;font style=&quot;font-size: 24px;&quot;&gt;start&lt;/font&gt;" style="strokeWidth=2;html=1;shape=mxgraph.flowchart.start_1;whiteSpace=wrap;" vertex="1" parent="1">
          <mxGeometry x="375" y="40" width="100" height="60" as="geometry" />
        </mxCell>
        <mxCell id="Z5qHU2cOtqx7cBTbtLDX-2" value="&lt;font style=&quot;font-size: 24px;&quot;&gt;end&lt;/font&gt;" style="strokeWidth=2;html=1;shape=mxgraph.flowchart.start_1;whiteSpace=wrap;" vertex="1" parent="1">
          <mxGeometry x="375" y="370" width="100" height="60" as="geometry" />
        </mxCell>
        <mxCell id="Z5qHU2cOtqx7cBTbtLDX-8" style="edgeStyle=orthogonalEdgeStyle;rounded=0;orthogonalLoop=1;jettySize=auto;html=1;entryX=0.5;entryY=0;entryDx=0;entryDy=0;" edge="1" parent="1" source="Z5qHU2cOtqx7cBTbtLDX-5" target="Z5qHU2cOtqx7cBTbtLDX-6">
          <mxGeometry relative="1" as="geometry" />
        </mxCell>
        <mxCell id="Z5qHU2cOtqx7cBTbtLDX-5" value="input number" style="shape=parallelogram;perimeter=parallelogramPerimeter;whiteSpace=wrap;html=1;fixedSize=1;" vertex="1" parent="1">
          <mxGeometry x="354" y="150" width="142" height="30" as="geometry" />
        </mxCell>
        <mxCell id="Z5qHU2cOtqx7cBTbtLDX-6" value="convertToRoman(number)" style="verticalLabelPosition=bottom;verticalAlign=top;html=1;shape=process;whiteSpace=wrap;rounded=1;size=0.14;arcSize=6;" vertex="1" parent="1">
          <mxGeometry x="345" y="240" width="160" height="50" as="geometry" />
        </mxCell>
        <mxCell id="Z5qHU2cOtqx7cBTbtLDX-9" style="edgeStyle=orthogonalEdgeStyle;rounded=0;orthogonalLoop=1;jettySize=auto;html=1;entryX=0.5;entryY=0;entryDx=0;entryDy=0;entryPerimeter=0;" edge="1" parent="1" source="Z5qHU2cOtqx7cBTbtLDX-6" target="Z5qHU2cOtqx7cBTbtLDX-2">
          <mxGeometry relative="1" as="geometry" />
        </mxCell>
        <mxCell id="Z5qHU2cOtqx7cBTbtLDX-13" style="edgeStyle=orthogonalEdgeStyle;rounded=0;orthogonalLoop=1;jettySize=auto;html=1;entryX=0.5;entryY=0;entryDx=0;entryDy=0;" edge="1" parent="1" source="Z5qHU2cOtqx7cBTbtLDX-10" target="Z5qHU2cOtqx7cBTbtLDX-11">
          <mxGeometry relative="1" as="geometry" />
        </mxCell>
        <mxCell id="Z5qHU2cOtqx7cBTbtLDX-10" value="&lt;font style=&quot;font-size: 16px;&quot;&gt;convertToRoman&lt;/font&gt;" style="strokeWidth=2;html=1;shape=mxgraph.flowchart.start_1;whiteSpace=wrap;" vertex="1" parent="1">
          <mxGeometry x="690" y="40" width="170" height="90" as="geometry" />
        </mxCell>
        <mxCell id="Z5qHU2cOtqx7cBTbtLDX-14" style="edgeStyle=orthogonalEdgeStyle;rounded=0;orthogonalLoop=1;jettySize=auto;html=1;entryX=0.5;entryY=0;entryDx=0;entryDy=0;" edge="1" parent="1" source="Z5qHU2cOtqx7cBTbtLDX-11" target="Z5qHU2cOtqx7cBTbtLDX-12">
          <mxGeometry relative="1" as="geometry" />
        </mxCell>
        <mxCell id="Z5qHU2cOtqx7cBTbtLDX-11" value="values[] = { 1000, 900, 500, 400, 100, 90, 50, 40, 10, 9, 5, 4, 1 }" style="rounded=1;whiteSpace=wrap;html=1;absoluteArcSize=1;arcSize=14;strokeWidth=2;" vertex="1" parent="1">
          <mxGeometry x="600" y="180" width="350" height="40" as="geometry" />
        </mxCell>
        <mxCell id="Z5qHU2cOtqx7cBTbtLDX-17" style="edgeStyle=orthogonalEdgeStyle;rounded=0;orthogonalLoop=1;jettySize=auto;html=1;entryX=0.5;entryY=0;entryDx=0;entryDy=0;" edge="1" parent="1" source="Z5qHU2cOtqx7cBTbtLDX-12" target="Z5qHU2cOtqx7cBTbtLDX-15">
          <mxGeometry relative="1" as="geometry" />
        </mxCell>
        <mxCell id="Z5qHU2cOtqx7cBTbtLDX-12" value="*symbols[] = { &quot;M&quot;, &quot;CM&quot;, &quot;D&quot;, &quot;CD&quot;, &quot;C&quot;, &quot;XC&quot;, &quot;L&quot;, &quot;XL&quot;, &quot;X&quot;, &quot;IX&quot;, &quot;V&quot;, &quot;IV&quot;, &quot;I&quot; }" style="rounded=1;whiteSpace=wrap;html=1;absoluteArcSize=1;arcSize=14;strokeWidth=2;" vertex="1" parent="1">
          <mxGeometry x="600" y="270" width="350" height="40" as="geometry" />
        </mxCell>
        <mxCell id="Z5qHU2cOtqx7cBTbtLDX-18" style="edgeStyle=orthogonalEdgeStyle;rounded=0;orthogonalLoop=1;jettySize=auto;html=1;" edge="1" parent="1" source="Z5qHU2cOtqx7cBTbtLDX-15" target="Z5qHU2cOtqx7cBTbtLDX-16">
          <mxGeometry relative="1" as="geometry" />
        </mxCell>
        <mxCell id="Z5qHU2cOtqx7cBTbtLDX-15" value="for i &amp;lt; 13, i++" style="rhombus;whiteSpace=wrap;html=1;" vertex="1" parent="1">
          <mxGeometry x="704" y="350" width="142" height="70" as="geometry" />
        </mxCell>
        <mxCell id="Z5qHU2cOtqx7cBTbtLDX-21" style="edgeStyle=orthogonalEdgeStyle;rounded=0;orthogonalLoop=1;jettySize=auto;html=1;entryX=0.5;entryY=0;entryDx=0;entryDy=0;" edge="1" parent="1" source="Z5qHU2cOtqx7cBTbtLDX-16" target="Z5qHU2cOtqx7cBTbtLDX-19">
          <mxGeometry relative="1" as="geometry" />
        </mxCell>
        <mxCell id="Z5qHU2cOtqx7cBTbtLDX-24" style="edgeStyle=orthogonalEdgeStyle;rounded=0;orthogonalLoop=1;jettySize=auto;html=1;entryX=1;entryY=1;entryDx=0;entryDy=0;" edge="1" parent="1" source="Z5qHU2cOtqx7cBTbtLDX-16" target="Z5qHU2cOtqx7cBTbtLDX-15">
          <mxGeometry relative="1" as="geometry" />
        </mxCell>
        <mxCell id="Z5qHU2cOtqx7cBTbtLDX-16" value="num =&amp;gt; values[i]" style="rhombus;whiteSpace=wrap;html=1;" vertex="1" parent="1">
          <mxGeometry x="860" y="460" width="142" height="70" as="geometry" />
        </mxCell>
        <mxCell id="Z5qHU2cOtqx7cBTbtLDX-22" style="edgeStyle=orthogonalEdgeStyle;rounded=0;orthogonalLoop=1;jettySize=auto;html=1;entryX=0.5;entryY=0;entryDx=0;entryDy=0;" edge="1" parent="1" source="Z5qHU2cOtqx7cBTbtLDX-19" target="Z5qHU2cOtqx7cBTbtLDX-20">
          <mxGeometry relative="1" as="geometry" />
        </mxCell>
        <mxCell id="Z5qHU2cOtqx7cBTbtLDX-19" value="output symbol[i]" style="shape=parallelogram;perimeter=parallelogramPerimeter;whiteSpace=wrap;html=1;fixedSize=1;" vertex="1" parent="1">
          <mxGeometry x="1061.5" y="530" width="142" height="30" as="geometry" />
        </mxCell>
        <mxCell id="Z5qHU2cOtqx7cBTbtLDX-23" style="edgeStyle=orthogonalEdgeStyle;rounded=0;orthogonalLoop=1;jettySize=auto;html=1;entryX=1;entryY=1;entryDx=0;entryDy=0;" edge="1" parent="1" source="Z5qHU2cOtqx7cBTbtLDX-20" target="Z5qHU2cOtqx7cBTbtLDX-16">
          <mxGeometry relative="1" as="geometry" />
        </mxCell>
        <mxCell id="Z5qHU2cOtqx7cBTbtLDX-20" value="num -+ values[i]" style="rounded=1;whiteSpace=wrap;html=1;absoluteArcSize=1;arcSize=14;strokeWidth=2;" vertex="1" parent="1">
          <mxGeometry x="1050" y="610" width="165" height="40" as="geometry" />
        </mxCell>
        <mxCell id="Z5qHU2cOtqx7cBTbtLDX-25" value="&lt;font style=&quot;font-size: 24px;&quot;&gt;end&lt;/font&gt;" style="strokeWidth=2;html=1;shape=mxgraph.flowchart.start_1;whiteSpace=wrap;" vertex="1" parent="1">
          <mxGeometry x="725" y="630" width="100" height="60" as="geometry" />
        </mxCell>
        <mxCell id="Z5qHU2cOtqx7cBTbtLDX-26" style="edgeStyle=orthogonalEdgeStyle;rounded=0;orthogonalLoop=1;jettySize=auto;html=1;entryX=0.5;entryY=0;entryDx=0;entryDy=0;entryPerimeter=0;" edge="1" parent="1" source="Z5qHU2cOtqx7cBTbtLDX-15" target="Z5qHU2cOtqx7cBTbtLDX-25">
          <mxGeometry relative="1" as="geometry" />
        </mxCell>
      </root>
    </mxGraphModel>
  </diagram>
</mxfile>
